# xmcd
#
# Track frame offsets:
#	183
#	23190
#	40618
#	53613
#	70770
#	94685
#	112643
#	130470
#	151548
#
# Disc length: 2308 seconds
#
# Revision: 0
# Processed by: cddbd v1.5.2PL0 Copyright (c) Steve Scherf et al.
# Submitted via: audiograbber 1.83.01
#
DISCID=5e090209
DTITLE=Cray Band, The Robert - False accusations
DYEAR=1985
DGENRE=Blues
TTITLE0=Porch light
TTITLE1=Change of heart, change of mind (S.O.F.T.)
TTITLE2=She's gone
TTITLE3=Playin' in the dirt
TTITLE4=I've slipped her mind
TTITLE5=False accusations
TTITLE6=The last time (I get burned like this)
TTITLE7=Payin' for it now
TTITLE8=Sonny
EXTD=
EXTT0=
EXTT1=
EXTT2=
EXTT3=
EXTT4=
EXTT5=
EXTT6=
EXTT7=
EXTT8=
PLAYORDER=
